<svg aria-hidden="true" style="position: absolute; width: 0; height: 0; overflow: hidden;" version="1.1" xmlns="http://www.w3.org/2000/svg" xmlns:xlink="http://www.w3.org/1999/xlink">
<defs>
<symbol id="icon-clock" viewBox="0 0 32 32">
<path d="M16 0.5c-8.563 0-15.5 6.937-15.5 15.5s6.937 15.5 15.5 15.5c8.563 0 15.5-6.937 15.5-15.5s-6.937-15.5-15.5-15.5zM16 28.5c-6.937 0-12.5-5.563-12.5-12.5 0-6.875 5.563-12.5 12.5-12.5 6.875 0 12.5 5.625 12.5 12.5 0 6.937-5.625 12.5-12.5 12.5zM19.813 22c0.375 0.25 0.812 0.187 1.062-0.187l1.188-1.563c0.25-0.375 0.187-0.813-0.188-1.063l-4.125-3.062v-8.875c0-0.375-0.375-0.75-0.75-0.75h-2c-0.437 0-0.75 0.375-0.75 0.75v10.313c0 0.187 0.063 0.437 0.25 0.562l5.313 3.875z"></path>
</symbol>
<symbol id="icon-email-1" viewBox="0 0 32 32">
<path d="M32 11.028c-0.536 0.589-1.143 1.107-1.786 1.554-2.982 2.018-5.982 4.054-8.893 6.161-1.5 1.107-3.357 2.464-5.304 2.464h-0.036c-1.946 0-3.804-1.357-5.304-2.464-2.911-2.125-5.911-4.143-8.875-6.161-0.661-0.446-1.268-0.964-1.804-1.554v14.179c0 1.571 1.286 2.857 2.857 2.857h26.286c1.571 0 2.857-1.286 2.857-2.857v-14.179zM32 5.778c0-1.571-1.304-2.857-2.857-2.857h-26.286c-1.911 0-2.857 1.5-2.857 3.25 0 1.625 1.804 3.643 3.071 4.5 2.768 1.929 5.571 3.857 8.339 5.804 1.161 0.804 3.125 2.446 4.571 2.446h0.036c1.446 0 3.411-1.643 4.571-2.446 2.768-1.946 5.571-3.875 8.357-5.804 1.571-1.089 3.053-2.893 3.053-4.893z"></path>
</symbol>
<symbol id="icon-email-2" viewBox="0 0 32 32">
<path d="M28.735 4.245h-25.469c-1.653 0-2.939 1.347-2.939 2.939v17.633c0 1.653 1.286 2.939 2.939 2.939h25.469c1.592 0 2.939-1.286 2.939-2.939v-17.633c0-1.592-1.347-2.939-2.939-2.939zM28.735 7.184v2.51c-1.408 1.163-3.612 2.878-8.265 6.551-1.041 0.796-3.061 2.755-4.469 2.694-1.469 0.061-3.49-1.898-4.531-2.694-4.653-3.673-6.857-5.388-8.204-6.551v-2.51h25.469zM3.265 24.816v-11.327c1.347 1.102 3.367 2.694 6.367 5.082 1.347 1.041 3.735 3.367 6.367 3.306 2.571 0.061 4.898-2.265 6.306-3.306 3-2.388 5.020-3.98 6.429-5.082v11.327h-25.469z"></path>
</symbol>
<symbol id="icon-logo" viewBox="0 0 32 32">
<path fill="#f7654a" style="fill: var(--color1, #f7654a)" d="M28.824 3.176c-2.060-2.043-4.773-3.176-7.674-3.176s-5.614 1.133-7.674 3.176c-1.597 1.597-2.644 3.622-3.021 5.803-0.034 0.223-0.069 0.446-0.086 0.669s-0.034 0.446-0.051 0.67c-0.017 0.172-0.017 0.361-0.017 0.532v10.867h9.391c0.017-0.189 0.017-0.361 0.017-0.549v-1.459h-7.399v-8.841c0-0.189 0-0.36 0.017-0.549 0.017-0.223 0.034-0.446 0.069-0.67s0.069-0.446 0.12-0.669c0.36-1.682 1.219-3.193 2.386-4.378 1.597-1.597 3.811-2.592 6.249-2.592 4.876 0 8.841 3.966 8.841 8.841 0 2.438-0.996 4.652-2.592 6.249-1.185 1.185-2.695 2.026-4.378 2.386v1.665c0 0.137 0 0.258 0 0.395 2.18-0.378 4.206-1.425 5.803-3.021 2.043-2.043 3.176-4.773 3.176-7.674s-1.133-5.631-3.176-7.674z"></path>
<path fill="#f7654a" style="fill: var(--color1, #f7654a)" d="M12.309 12.309h7.399v8.858c0 0.189 0 0.361-0.017 0.549-0.017 0.223-0.034 0.446-0.069 0.669s-0.069 0.446-0.12 0.67c-0.36 1.682-1.219 3.193-2.386 4.378-1.597 1.597-3.811 2.592-6.249 2.592-4.876 0-8.841-3.966-8.841-8.841 0-2.438 0.996-4.652 2.592-6.249 1.185-1.185 2.695-2.026 4.378-2.386v-1.665c0-0.137 0-0.258 0-0.395-2.18 0.378-4.206 1.425-5.803 3.021-2.060 2.009-3.193 4.738-3.193 7.639s1.133 5.614 3.176 7.674c2.043 2.043 4.772 3.176 7.674 3.176s5.614-1.133 7.674-3.176c1.923-1.923 3.039-4.446 3.159-7.142 0-0.086 0-0.172 0.017-0.258 0-0.052 0-0.086 0-0.137s0-0.086 0-0.137v-10.85h-9.391c-0.017 0.189-0.017 0.361-0.017 0.549l0.017 1.459z"></path>
</symbol>
<symbol id="icon-mark" viewBox="0 0 32 32">
<path d="M16 0c-6.551 0-11.755 5.327-11.755 11.755 0 4.408 1.408 5.755 9.245 18.245 1.163 1.837 3.796 1.837 4.959 0 7.837-12.49 9.306-13.837 9.306-18.245 0-6.49-5.326-11.755-11.755-11.755zM16 28.408c-7.837-12.49-8.816-13.286-8.816-16.653 0-4.837 3.918-8.816 8.816-8.816 4.837 0 8.816 3.98 8.816 8.816 0 3.367-0.98 4.041-8.816 16.653zM11.102 11.755c0 2.755 2.143 4.898 4.898 4.898 2.694 0 4.898-2.143 4.898-4.898 0-2.694-2.204-4.898-4.898-4.898-2.755 0-4.898 2.204-4.898 4.898z"></path>
</symbol>
<symbol id="icon-menu" viewBox="0 0 32 32">
<path fill="#fff" style="fill: var(--color2, #fff)" d="M31.347 25.796c0-0.714-0.592-1.306-1.306-1.306h-28.735c-0.714 0-1.306 0.592-1.306 1.306v2.612c0 0.714 0.592 1.306 1.306 1.306h28.735c0.714 0 1.306-0.592 1.306-1.306v-2.612zM31.347 15.347c0-0.714-0.592-1.306-1.306-1.306h-28.735c-0.714 0-1.306 0.592-1.306 1.306v2.612c0 0.714 0.592 1.306 1.306 1.306h28.735c0.714 0 1.306-0.592 1.306-1.306v-2.612zM31.347 4.898c0-0.714-0.592-1.306-1.306-1.306h-28.735c-0.714 0-1.306 0.592-1.306 1.306v2.612c0 0.714 0.592 1.306 1.306 1.306h28.735c0.714 0 1.306-0.592 1.306-1.306v-2.612z"></path>
</symbol>
<symbol id="icon-phone" viewBox="0 0 32 32">
<path d="M29.469 1.735l-5.755-1.286c-1.347-0.306-2.694 0.367-3.184 1.592l-2.694 6.245c-0.49 1.102-0.184 2.449 0.796 3.245l2.449 2.020c-1.714 3.184-4.408 5.816-7.592 7.592l-2.020-2.449c-0.796-0.98-2.143-1.286-3.245-0.796l-6.245 2.633c-1.224 0.551-1.898 1.898-1.592 3.245l1.286 5.755c0.306 1.286 1.469 2.143 2.755 2.143 15 0 27.245-12.122 27.245-27.184 0-1.286-0.918-2.449-2.204-2.755zM4.551 28.735l-1.286-5.51 6-2.571 3.429 4.163c6.061-2.878 9.184-6 12.061-12.061l-4.163-3.429 2.572-6 5.571 1.286c-0.061 13.286-10.898 24.061-24.184 24.122z"></path>
</symbol>
<symbol id="icon-Polygon-close" viewBox="0 0 32 32">
<path d="M30.769 16l-27.692 15.988v-31.976l27.692 15.988z"></path>
</symbol>
<symbol id="icon-Polygon-open" viewBox="0 0 32 32">
<path d="M16 1.231l15.988 27.692h-31.976l15.988-27.692z"></path>
</symbol>
<symbol id="icon-project" viewBox="0 0 32 32">
<path fill="#f7654a" style="fill: var(--color1, #f7654a)" d="M12.2 22.4h-2c-0.35 0-0.6 0.3-0.6 0.6v2c0 0.35 0.25 0.6 0.6 0.6h2c0.3 0 0.6-0.25 0.6-0.6v-2c0-0.3-0.3-0.6-0.6-0.6zM12.2 12.8h-2c-0.35 0-0.6 0.3-0.6 0.6v2c0 0.35 0.25 0.6 0.6 0.6h2c0.3 0 0.6-0.25 0.6-0.6v-2c0-0.3-0.3-0.6-0.6-0.6zM7.4 12.8h-2c-0.35 0-0.6 0.3-0.6 0.6v2c0 0.35 0.25 0.6 0.6 0.6h2c0.3 0 0.6-0.25 0.6-0.6v-2c0-0.3-0.3-0.6-0.6-0.6zM7.4 22.4h-2c-0.35 0-0.6 0.3-0.6 0.6v2c0 0.35 0.25 0.6 0.6 0.6h2c0.3 0 0.6-0.25 0.6-0.6v-2c0-0.3-0.3-0.6-0.6-0.6zM7.4 17.6h-2c-0.35 0-0.6 0.3-0.6 0.6v2c0 0.35 0.25 0.6 0.6 0.6h2c0.3 0 0.6-0.25 0.6-0.6v-2c0-0.3-0.3-0.6-0.6-0.6zM12.2 17.6h-2c-0.35 0-0.6 0.3-0.6 0.6v2c0 0.35 0.25 0.6 0.6 0.6h2c0.3 0 0.6-0.25 0.6-0.6v-2c0-0.3-0.3-0.6-0.6-0.6zM26.6 22.4h-2c-0.35 0-0.6 0.3-0.6 0.6v2c0 0.35 0.25 0.6 0.6 0.6h2c0.3 0 0.6-0.25 0.6-0.6v-2c0-0.3-0.3-0.6-0.6-0.6zM26.6 17.6h-2c-0.35 0-0.6 0.3-0.6 0.6v2c0 0.35 0.25 0.6 0.6 0.6h2c0.3 0 0.6-0.25 0.6-0.6v-2c0-0.3-0.3-0.6-0.6-0.6zM30.8 12.8h-5.2v-8.4c0-0.65-0.55-1.2-1.2-1.2h-10.4c-0.7 0-1.2 0.55-1.2 1.2v3.6h-1.6v-4c0-0.4-0.4-0.8-0.8-0.8h-0.8c-0.45 0-0.8 0.4-0.8 0.8v4h-3.2v-4c0-0.4-0.4-0.8-0.8-0.8h-0.8c-0.45 0-0.8 0.4-0.8 0.8v4h-2c-0.7 0-1.2 0.55-1.2 1.2v18.8c0 0.45 0.35 0.8 0.8 0.8h0.8c0.4 0 0.8-0.35 0.8-0.8v-17.6h12.8v-4.8h8v9.6h6.4v12.8c0 0.45 0.35 0.8 0.8 0.8h0.8c0.4 0 0.8-0.35 0.8-0.8v-14c0-0.65-0.55-1.2-1.2-1.2zM20.2 8h-2c-0.35 0-0.6 0.3-0.6 0.6v2c0 0.35 0.25 0.6 0.6 0.6h2c0.3 0 0.6-0.25 0.6-0.6v-2c0-0.3-0.3-0.6-0.6-0.6zM20.2 17.6h-2c-0.35 0-0.6 0.3-0.6 0.6v2c0 0.35 0.25 0.6 0.6 0.6h2c0.3 0 0.6-0.25 0.6-0.6v-2c0-0.3-0.3-0.6-0.6-0.6zM20.2 12.8h-2c-0.35 0-0.6 0.3-0.6 0.6v2c0 0.35 0.25 0.6 0.6 0.6h2c0.3 0 0.6-0.25 0.6-0.6v-2c0-0.3-0.3-0.6-0.6-0.6z"></path>
</symbol>
<symbol id="icon-quotes" viewBox="0 0 39 32">
<path fill="#f7654a" style="fill: var(--color1, #f7654a)" d="M0.238 31.698c0-3.438 0.073-7.497 0.219-12.178 0.219-6.656 1.28-11.483 3.182-14.482s5.266-4.498 10.094-4.498l1.317 5.595c-2.633 0.073-4.425 0.951-5.376 2.633-0.878 1.609-1.317 4.023-1.317 7.241h7.68v15.689h-15.799zM22.729 31.698c0-3.438 0.073-7.497 0.219-12.178 0.219-6.656 1.28-11.483 3.182-14.482s5.266-4.498 10.094-4.498l1.317 5.595c-2.633 0.073-4.425 0.951-5.376 2.633-0.878 1.609-1.317 4.023-1.317 7.241h7.68v15.689h-15.799z"></path>
</symbol>
</defs>
</svg>
